<mxfile host="app.diagrams.net" modified="2022-01-13T11:28:51.702Z" agent="5.0 (Macintosh; Intel Mac OS X 10_15_7) AppleWebKit/605.1.15 (KHTML, like Gecko) Version/15.2 Safari/605.1.15" etag="_wsSs5GsWSh8c5iSyee6" version="16.2.6" type="github">
  <diagram id="Zk5j9duTd-nVxbbKeObx" name="Page-1">
    <mxGraphModel dx="946" dy="645" grid="1" gridSize="10" guides="1" tooltips="1" connect="1" arrows="1" fold="1" page="1" pageScale="1" pageWidth="827" pageHeight="1169" math="0" shadow="0">
      <root>
        <mxCell id="0" />
        <mxCell id="1" parent="0" />
        <mxCell id="4E8U3u3NN90B3ZDfc-il-1" value="E-Bike" style="whiteSpace=wrap;html=1;align=center;" vertex="1" parent="1">
          <mxGeometry x="220" y="600" width="100" height="40" as="geometry" />
        </mxCell>
        <mxCell id="4E8U3u3NN90B3ZDfc-il-2" value="&lt;u&gt;Fahrradnummer&lt;/u&gt;" style="ellipse;whiteSpace=wrap;html=1;align=center;" vertex="1" parent="1">
          <mxGeometry x="70" y="510" width="100" height="40" as="geometry" />
        </mxCell>
        <mxCell id="4E8U3u3NN90B3ZDfc-il-3" value="Akkustand" style="ellipse;whiteSpace=wrap;html=1;align=center;" vertex="1" parent="1">
          <mxGeometry x="70" y="565" width="100" height="40" as="geometry" />
        </mxCell>
        <mxCell id="4E8U3u3NN90B3ZDfc-il-4" value="Standort&lt;span style=&quot;color: rgba(0 , 0 , 0 , 0) ; font-family: monospace ; font-size: 0px&quot;&gt;%3CmxGraphModel%3E%3Croot%3E%3CmxCell%20id%3D%220%22%2F%3E%3CmxCell%20id%3D%221%22%20parent%3D%220%22%2F%3E%3CmxCell%20id%3D%222%22%20value%3D%22Attribute%22%20style%3D%22ellipse%3BwhiteSpace%3Dwrap%3Bhtml%3D1%3Balign%3Dcenter%3B%22%20vertex%3D%221%22%20parent%3D%221%22%3E%3CmxGeometry%20x%3D%2260%22%20y%3D%22490%22%20width%3D%22100%22%20height%3D%2240%22%20as%3D%22geometry%22%2F%3E%3C%2FmxCell%3E%3C%2Froot%3E%3C%2FmxGraphModel%3E&lt;/span&gt;" style="ellipse;whiteSpace=wrap;html=1;align=center;" vertex="1" parent="1">
          <mxGeometry x="70" y="620" width="100" height="40" as="geometry" />
        </mxCell>
        <mxCell id="4E8U3u3NN90B3ZDfc-il-5" value="Zustand" style="ellipse;whiteSpace=wrap;html=1;align=center;" vertex="1" parent="1">
          <mxGeometry x="70" y="680" width="100" height="40" as="geometry" />
        </mxCell>
        <mxCell id="4E8U3u3NN90B3ZDfc-il-6" value="" style="endArrow=none;html=1;rounded=0;" edge="1" parent="1" source="4E8U3u3NN90B3ZDfc-il-2" target="4E8U3u3NN90B3ZDfc-il-1">
          <mxGeometry width="50" height="50" relative="1" as="geometry">
            <mxPoint x="280" y="650" as="sourcePoint" />
            <mxPoint x="330" y="600" as="targetPoint" />
          </mxGeometry>
        </mxCell>
        <mxCell id="4E8U3u3NN90B3ZDfc-il-8" value="" style="endArrow=none;html=1;rounded=0;" edge="1" parent="1" source="4E8U3u3NN90B3ZDfc-il-1" target="4E8U3u3NN90B3ZDfc-il-3">
          <mxGeometry width="50" height="50" relative="1" as="geometry">
            <mxPoint x="280" y="650" as="sourcePoint" />
            <mxPoint x="330" y="600" as="targetPoint" />
          </mxGeometry>
        </mxCell>
        <mxCell id="4E8U3u3NN90B3ZDfc-il-9" value="" style="endArrow=none;html=1;rounded=0;" edge="1" parent="1" source="4E8U3u3NN90B3ZDfc-il-1" target="4E8U3u3NN90B3ZDfc-il-4">
          <mxGeometry width="50" height="50" relative="1" as="geometry">
            <mxPoint x="280" y="650" as="sourcePoint" />
            <mxPoint x="330" y="600" as="targetPoint" />
          </mxGeometry>
        </mxCell>
        <mxCell id="4E8U3u3NN90B3ZDfc-il-10" value="" style="endArrow=none;html=1;rounded=0;" edge="1" parent="1" source="4E8U3u3NN90B3ZDfc-il-1" target="4E8U3u3NN90B3ZDfc-il-5">
          <mxGeometry width="50" height="50" relative="1" as="geometry">
            <mxPoint x="280" y="650" as="sourcePoint" />
            <mxPoint x="330" y="600" as="targetPoint" />
          </mxGeometry>
        </mxCell>
        <mxCell id="4E8U3u3NN90B3ZDfc-il-11" value="Kunde" style="whiteSpace=wrap;html=1;align=center;" vertex="1" parent="1">
          <mxGeometry x="220" y="380" width="100" height="40" as="geometry" />
        </mxCell>
        <mxCell id="4E8U3u3NN90B3ZDfc-il-14" value="ausleihen" style="shape=rhombus;perimeter=rhombusPerimeter;whiteSpace=wrap;html=1;align=center;" vertex="1" parent="1">
          <mxGeometry x="210" y="480" width="120" height="60" as="geometry" />
        </mxCell>
        <mxCell id="4E8U3u3NN90B3ZDfc-il-15" value="" style="endArrow=none;html=1;rounded=0;" edge="1" parent="1" source="4E8U3u3NN90B3ZDfc-il-11" target="4E8U3u3NN90B3ZDfc-il-14">
          <mxGeometry width="50" height="50" relative="1" as="geometry">
            <mxPoint x="420" y="490" as="sourcePoint" />
            <mxPoint x="470" y="440" as="targetPoint" />
          </mxGeometry>
        </mxCell>
        <mxCell id="4E8U3u3NN90B3ZDfc-il-16" value="" style="endArrow=classic;html=1;rounded=0;entryX=0.5;entryY=0;entryDx=0;entryDy=0;" edge="1" parent="1" source="4E8U3u3NN90B3ZDfc-il-14" target="4E8U3u3NN90B3ZDfc-il-1">
          <mxGeometry width="50" height="50" relative="1" as="geometry">
            <mxPoint x="420" y="490" as="sourcePoint" />
            <mxPoint x="470" y="440" as="targetPoint" />
          </mxGeometry>
        </mxCell>
        <mxCell id="4E8U3u3NN90B3ZDfc-il-51" value="n" style="edgeLabel;html=1;align=center;verticalAlign=middle;resizable=0;points=[];" vertex="1" connectable="0" parent="4E8U3u3NN90B3ZDfc-il-16">
          <mxGeometry x="0.5667" y="-1" relative="1" as="geometry">
            <mxPoint as="offset" />
          </mxGeometry>
        </mxCell>
        <mxCell id="4E8U3u3NN90B3ZDfc-il-17" value="dokumentieren" style="ellipse;whiteSpace=wrap;html=1;align=center;" vertex="1" parent="1">
          <mxGeometry x="70" y="440" width="100" height="40" as="geometry" />
        </mxCell>
        <mxCell id="4E8U3u3NN90B3ZDfc-il-18" value="" style="endArrow=none;html=1;rounded=0;" edge="1" parent="1" source="4E8U3u3NN90B3ZDfc-il-14" target="4E8U3u3NN90B3ZDfc-il-17">
          <mxGeometry width="50" height="50" relative="1" as="geometry">
            <mxPoint x="420" y="490" as="sourcePoint" />
            <mxPoint x="470" y="440" as="targetPoint" />
          </mxGeometry>
        </mxCell>
        <mxCell id="4E8U3u3NN90B3ZDfc-il-20" value="1" style="text;html=1;align=center;verticalAlign=middle;resizable=0;points=[];autosize=1;strokeColor=none;fillColor=none;" vertex="1" parent="1">
          <mxGeometry x="280" y="420" width="20" height="20" as="geometry" />
        </mxCell>
        <mxCell id="4E8U3u3NN90B3ZDfc-il-21" value="beginn" style="ellipse;whiteSpace=wrap;html=1;align=center;" vertex="1" parent="1">
          <mxGeometry x="70" y="400" width="100" height="40" as="geometry" />
        </mxCell>
        <mxCell id="4E8U3u3NN90B3ZDfc-il-22" value="ende" style="ellipse;whiteSpace=wrap;html=1;align=center;" vertex="1" parent="1">
          <mxGeometry x="90" y="360" width="100" height="40" as="geometry" />
        </mxCell>
        <mxCell id="4E8U3u3NN90B3ZDfc-il-23" value="" style="endArrow=none;html=1;rounded=0;" edge="1" parent="1" source="4E8U3u3NN90B3ZDfc-il-14" target="4E8U3u3NN90B3ZDfc-il-21">
          <mxGeometry width="50" height="50" relative="1" as="geometry">
            <mxPoint x="244" y="508" as="sourcePoint" />
            <mxPoint x="168.41106397986687" y="482.80368799328903" as="targetPoint" />
          </mxGeometry>
        </mxCell>
        <mxCell id="4E8U3u3NN90B3ZDfc-il-24" value="" style="endArrow=none;html=1;rounded=0;" edge="1" parent="1" source="4E8U3u3NN90B3ZDfc-il-14" target="4E8U3u3NN90B3ZDfc-il-22">
          <mxGeometry width="50" height="50" relative="1" as="geometry">
            <mxPoint x="252.72727272727275" y="503.63636363636374" as="sourcePoint" />
            <mxPoint x="157.7350098112613" y="446.64100588675683" as="targetPoint" />
          </mxGeometry>
        </mxCell>
        <mxCell id="4E8U3u3NN90B3ZDfc-il-25" value="&lt;u&gt;Kundennummer&lt;/u&gt;" style="ellipse;whiteSpace=wrap;html=1;align=center;" vertex="1" parent="1">
          <mxGeometry x="340" y="350" width="100" height="40" as="geometry" />
        </mxCell>
        <mxCell id="4E8U3u3NN90B3ZDfc-il-28" value="&lt;u&gt;Name und Vorname&lt;/u&gt;" style="ellipse;whiteSpace=wrap;html=1;align=center;" vertex="1" parent="1">
          <mxGeometry x="340" y="390" width="100" height="40" as="geometry" />
        </mxCell>
        <mxCell id="4E8U3u3NN90B3ZDfc-il-29" value="Standort" style="ellipse;whiteSpace=wrap;html=1;align=center;" vertex="1" parent="1">
          <mxGeometry x="340" y="430" width="100" height="40" as="geometry" />
        </mxCell>
        <mxCell id="4E8U3u3NN90B3ZDfc-il-31" value="" style="endArrow=none;html=1;rounded=0;" edge="1" parent="1" source="4E8U3u3NN90B3ZDfc-il-11" target="4E8U3u3NN90B3ZDfc-il-25">
          <mxGeometry width="50" height="50" relative="1" as="geometry">
            <mxPoint x="420" y="490" as="sourcePoint" />
            <mxPoint x="470" y="440" as="targetPoint" />
          </mxGeometry>
        </mxCell>
        <mxCell id="4E8U3u3NN90B3ZDfc-il-32" value="" style="endArrow=none;html=1;rounded=0;" edge="1" parent="1" source="4E8U3u3NN90B3ZDfc-il-11" target="4E8U3u3NN90B3ZDfc-il-28">
          <mxGeometry width="50" height="50" relative="1" as="geometry">
            <mxPoint x="420" y="490" as="sourcePoint" />
            <mxPoint x="470" y="440" as="targetPoint" />
          </mxGeometry>
        </mxCell>
        <mxCell id="4E8U3u3NN90B3ZDfc-il-33" value="" style="endArrow=none;html=1;rounded=0;" edge="1" parent="1" source="4E8U3u3NN90B3ZDfc-il-11" target="4E8U3u3NN90B3ZDfc-il-29">
          <mxGeometry width="50" height="50" relative="1" as="geometry">
            <mxPoint x="420" y="490" as="sourcePoint" />
            <mxPoint x="470" y="440" as="targetPoint" />
          </mxGeometry>
        </mxCell>
        <mxCell id="4E8U3u3NN90B3ZDfc-il-34" value="" style="endArrow=none;html=1;rounded=0;" edge="1" parent="1" source="4E8U3u3NN90B3ZDfc-il-11" target="4E8U3u3NN90B3ZDfc-il-36">
          <mxGeometry width="50" height="50" relative="1" as="geometry">
            <mxPoint x="420" y="290" as="sourcePoint" />
            <mxPoint x="680" y="360" as="targetPoint" />
            <Array as="points">
              <mxPoint x="270" y="270" />
              <mxPoint x="420" y="270" />
            </Array>
          </mxGeometry>
        </mxCell>
        <mxCell id="4E8U3u3NN90B3ZDfc-il-35" value="Rechnung" style="whiteSpace=wrap;html=1;align=center;" vertex="1" parent="1">
          <mxGeometry x="590" y="380" width="100" height="40" as="geometry" />
        </mxCell>
        <mxCell id="4E8U3u3NN90B3ZDfc-il-36" value="bekommt" style="shape=rhombus;perimeter=rhombusPerimeter;whiteSpace=wrap;html=1;align=center;" vertex="1" parent="1">
          <mxGeometry x="400" y="240" width="120" height="60" as="geometry" />
        </mxCell>
        <mxCell id="4E8U3u3NN90B3ZDfc-il-37" value="&lt;u&gt;Rechnungsnummer&lt;/u&gt;" style="ellipse;whiteSpace=wrap;html=1;align=center;" vertex="1" parent="1">
          <mxGeometry x="720" y="340" width="100" height="40" as="geometry" />
        </mxCell>
        <mxCell id="4E8U3u3NN90B3ZDfc-il-38" value="Rechnungsdatum" style="ellipse;whiteSpace=wrap;html=1;align=center;" vertex="1" parent="1">
          <mxGeometry x="720" y="380" width="100" height="40" as="geometry" />
        </mxCell>
        <mxCell id="4E8U3u3NN90B3ZDfc-il-39" value="Rechnungsbetrag" style="ellipse;whiteSpace=wrap;html=1;align=center;" vertex="1" parent="1">
          <mxGeometry x="720" y="420" width="100" height="40" as="geometry" />
        </mxCell>
        <mxCell id="4E8U3u3NN90B3ZDfc-il-41" value="" style="endArrow=none;html=1;rounded=0;" edge="1" parent="1" source="4E8U3u3NN90B3ZDfc-il-35" target="4E8U3u3NN90B3ZDfc-il-37">
          <mxGeometry width="50" height="50" relative="1" as="geometry">
            <mxPoint x="420" y="290" as="sourcePoint" />
            <mxPoint x="470" y="240" as="targetPoint" />
          </mxGeometry>
        </mxCell>
        <mxCell id="4E8U3u3NN90B3ZDfc-il-42" value="" style="endArrow=none;html=1;rounded=0;" edge="1" parent="1" source="4E8U3u3NN90B3ZDfc-il-35" target="4E8U3u3NN90B3ZDfc-il-39">
          <mxGeometry width="50" height="50" relative="1" as="geometry">
            <mxPoint x="420" y="290" as="sourcePoint" />
            <mxPoint x="470" y="240" as="targetPoint" />
          </mxGeometry>
        </mxCell>
        <mxCell id="4E8U3u3NN90B3ZDfc-il-43" value="" style="endArrow=none;html=1;rounded=0;" edge="1" parent="1" source="4E8U3u3NN90B3ZDfc-il-35" target="4E8U3u3NN90B3ZDfc-il-38">
          <mxGeometry width="50" height="50" relative="1" as="geometry">
            <mxPoint x="420" y="290" as="sourcePoint" />
            <mxPoint x="470" y="240" as="targetPoint" />
          </mxGeometry>
        </mxCell>
        <mxCell id="4E8U3u3NN90B3ZDfc-il-44" value="sicherung" style="shape=rhombus;perimeter=rhombusPerimeter;whiteSpace=wrap;html=1;align=center;" vertex="1" parent="1">
          <mxGeometry x="580" y="480" width="120" height="60" as="geometry" />
        </mxCell>
        <mxCell id="4E8U3u3NN90B3ZDfc-il-45" value="Datenbank" style="whiteSpace=wrap;html=1;align=center;" vertex="1" parent="1">
          <mxGeometry x="590" y="600" width="100" height="50" as="geometry" />
        </mxCell>
        <mxCell id="4E8U3u3NN90B3ZDfc-il-46" value="monatlich" style="shape=note;size=20;whiteSpace=wrap;html=1;" vertex="1" parent="1">
          <mxGeometry x="720" y="487.5" width="50" height="45" as="geometry" />
        </mxCell>
        <mxCell id="4E8U3u3NN90B3ZDfc-il-47" value="" style="endArrow=none;html=1;rounded=0;entryX=0.5;entryY=1;entryDx=0;entryDy=0;exitX=0.5;exitY=0;exitDx=0;exitDy=0;" edge="1" parent="1" source="4E8U3u3NN90B3ZDfc-il-44" target="4E8U3u3NN90B3ZDfc-il-35">
          <mxGeometry width="50" height="50" relative="1" as="geometry">
            <mxPoint x="420" y="460" as="sourcePoint" />
            <mxPoint x="470" y="410" as="targetPoint" />
          </mxGeometry>
        </mxCell>
        <mxCell id="4E8U3u3NN90B3ZDfc-il-49" value="" style="endArrow=classic;html=1;rounded=0;" edge="1" parent="1" source="4E8U3u3NN90B3ZDfc-il-44" target="4E8U3u3NN90B3ZDfc-il-45">
          <mxGeometry width="50" height="50" relative="1" as="geometry">
            <mxPoint x="420" y="460" as="sourcePoint" />
            <mxPoint x="470" y="410" as="targetPoint" />
          </mxGeometry>
        </mxCell>
        <mxCell id="4E8U3u3NN90B3ZDfc-il-50" value="" style="endArrow=classic;html=1;rounded=0;" edge="1" parent="1" source="4E8U3u3NN90B3ZDfc-il-36" target="4E8U3u3NN90B3ZDfc-il-35">
          <mxGeometry width="50" height="50" relative="1" as="geometry">
            <mxPoint x="420" y="460" as="sourcePoint" />
            <mxPoint x="470" y="410" as="targetPoint" />
            <Array as="points">
              <mxPoint x="640" y="270" />
            </Array>
          </mxGeometry>
        </mxCell>
        <mxCell id="4E8U3u3NN90B3ZDfc-il-52" value="1" style="text;html=1;align=center;verticalAlign=middle;resizable=0;points=[];autosize=1;strokeColor=none;fillColor=none;" vertex="1" parent="1">
          <mxGeometry x="280" y="360" width="20" height="20" as="geometry" />
        </mxCell>
        <mxCell id="4E8U3u3NN90B3ZDfc-il-53" value="n" style="text;html=1;align=center;verticalAlign=middle;resizable=0;points=[];autosize=1;strokeColor=none;fillColor=none;" vertex="1" parent="1">
          <mxGeometry x="610" y="360" width="20" height="20" as="geometry" />
        </mxCell>
        <mxCell id="4E8U3u3NN90B3ZDfc-il-54" value="n" style="text;html=1;align=center;verticalAlign=middle;resizable=0;points=[];autosize=1;strokeColor=none;fillColor=none;" vertex="1" parent="1">
          <mxGeometry x="610" y="420" width="20" height="20" as="geometry" />
        </mxCell>
        <mxCell id="4E8U3u3NN90B3ZDfc-il-55" value="1" style="text;html=1;align=center;verticalAlign=middle;resizable=0;points=[];autosize=1;strokeColor=none;fillColor=none;" vertex="1" parent="1">
          <mxGeometry x="610" y="580" width="20" height="20" as="geometry" />
        </mxCell>
      </root>
    </mxGraphModel>
  </diagram>
</mxfile>
